<?xml version="1.0" encoding="UTF-8" standalone="no"?>
<!DOCTYPE svg PUBLIC "-//W3C//DTD SVG 1.1//EN"
 "http://www.w3.org/Graphics/SVG/1.1/DTD/svg11.dtd">
<!-- Generated by graphviz version 2.43.0 (0)
 -->
<!-- Title: G Pages: 1 -->
<svg width="322pt" height="367pt"
 viewBox="0.00 0.00 322.30 367.31" xmlns="http://www.w3.org/2000/svg" xmlns:xlink="http://www.w3.org/1999/xlink">
<g id="graph0" class="graph" transform="scale(1 1) rotate(0) translate(4 363.31)">
<title>G</title>
<polygon fill="white" stroke="transparent" points="-4,4 -4,-363.31 318.3,-363.31 318.3,4 -4,4"/>
<!-- system.ruby.network.ext_links00.int_node -->
<g id="node1" class="node">
<title>system.ruby.network.ext_links00.int_node</title>
<path fill="#cce6fc" stroke="#000000" d="M120,-174.12C120,-174.12 150,-174.12 150,-174.12 156,-174.12 162,-180.12 162,-186.12 162,-186.12 162,-198.12 162,-198.12 162,-204.12 156,-210.12 150,-210.12 150,-210.12 120,-210.12 120,-210.12 114,-210.12 108,-204.12 108,-198.12 108,-198.12 108,-186.12 108,-186.12 108,-180.12 114,-174.12 120,-174.12"/>
<text text-anchor="middle" x="135" y="-188.42" font-family="Arial" font-size="14.00" fill="#000000">R 0</text>
</g>
<!-- system.ruby.network.ext_links01.int_node -->
<g id="node2" class="node">
<title>system.ruby.network.ext_links01.int_node</title>
<path fill="#cce6fc" stroke="#000000" d="M136.38,-259.74C136.38,-259.74 166.38,-259.74 166.38,-259.74 172.38,-259.74 178.38,-265.74 178.38,-271.74 178.38,-271.74 178.38,-283.74 178.38,-283.74 178.38,-289.74 172.38,-295.74 166.38,-295.74 166.38,-295.74 136.38,-295.74 136.38,-295.74 130.38,-295.74 124.38,-289.74 124.38,-283.74 124.38,-283.74 124.38,-271.74 124.38,-271.74 124.38,-265.74 130.38,-259.74 136.38,-259.74"/>
<text text-anchor="middle" x="151.38" y="-274.04" font-family="Arial" font-size="14.00" fill="#000000">R 1</text>
</g>
<!-- system.ruby.network.ext_links00.int_node&#45;&#45;system.ruby.network.ext_links01.int_node -->
<g id="edge1" class="edge">
<title>system.ruby.network.ext_links00.int_node&#45;&#45;system.ruby.network.ext_links01.int_node</title>
<path fill="none" stroke="black" d="M138.47,-210.28C141.25,-224.81 145.13,-245.09 147.91,-259.61"/>
</g>
<!-- system.ruby.network.ext_links03.int_node -->
<g id="node3" class="node">
<title>system.ruby.network.ext_links03.int_node</title>
<path fill="#cce6fc" stroke="#000000" d="M159.2,-84.26C159.2,-84.26 189.2,-84.26 189.2,-84.26 195.2,-84.26 201.2,-90.26 201.2,-96.26 201.2,-96.26 201.2,-108.26 201.2,-108.26 201.2,-114.26 195.2,-120.26 189.2,-120.26 189.2,-120.26 159.2,-120.26 159.2,-120.26 153.2,-120.26 147.2,-114.26 147.2,-108.26 147.2,-108.26 147.2,-96.26 147.2,-96.26 147.2,-90.26 153.2,-84.26 159.2,-84.26"/>
<text text-anchor="middle" x="174.2" y="-98.56" font-family="Arial" font-size="14.00" fill="#000000">R 2</text>
</g>
<!-- system.ruby.network.ext_links00.int_node&#45;&#45;system.ruby.network.ext_links03.int_node -->
<g id="edge2" class="edge">
<title>system.ruby.network.ext_links00.int_node&#45;&#45;system.ruby.network.ext_links03.int_node</title>
<path fill="none" stroke="black" d="M142.93,-173.93C149.73,-158.35 159.48,-136 166.28,-120.42"/>
</g>
<!-- system.ruby.dir_cntrl0 -->
<g id="node4" class="node">
<title>system.ruby.dir_cntrl0</title>
<path fill="#e5bcd0" stroke="#000000" d="M12,-191.8C12,-191.8 89,-191.8 89,-191.8 95,-191.8 101,-197.8 101,-203.8 101,-203.8 101,-215.8 101,-215.8 101,-221.8 95,-227.8 89,-227.8 89,-227.8 12,-227.8 12,-227.8 6,-227.8 0,-221.8 0,-215.8 0,-215.8 0,-203.8 0,-203.8 0,-197.8 6,-191.8 12,-191.8"/>
<text text-anchor="middle" x="50.5" y="-206.1" font-family="Arial" font-size="14.00" fill="#000000">ruby.dir_cntrl0</text>
</g>
<!-- system.ruby.dir_cntrl0&#45;&#45;system.ruby.network.ext_links00.int_node -->
<g id="edge3" class="edge">
<title>system.ruby.dir_cntrl0&#45;&#45;system.ruby.network.ext_links00.int_node</title>
<path fill="none" stroke="black" d="M101.11,-199.21C103.36,-198.74 105.58,-198.27 107.74,-197.82"/>
</g>
<!-- system.ruby.cp_cntrl0 -->
<g id="node5" class="node">
<title>system.ruby.cp_cntrl0</title>
<path fill="#e5bcd0" stroke="#000000" d="M169.7,-319.23C169.7,-319.23 246.7,-319.23 246.7,-319.23 252.7,-319.23 258.7,-325.23 258.7,-331.23 258.7,-331.23 258.7,-343.23 258.7,-343.23 258.7,-349.23 252.7,-355.23 246.7,-355.23 246.7,-355.23 169.7,-355.23 169.7,-355.23 163.7,-355.23 157.7,-349.23 157.7,-343.23 157.7,-343.23 157.7,-331.23 157.7,-331.23 157.7,-325.23 163.7,-319.23 169.7,-319.23"/>
<text text-anchor="middle" x="208.2" y="-333.53" font-family="Arial" font-size="14.00" fill="#000000">ruby.cp_cntrl0</text>
</g>
<!-- system.ruby.cp_cntrl0&#45;&#45;system.ruby.network.ext_links01.int_node -->
<g id="edge4" class="edge">
<title>system.ruby.cp_cntrl0&#45;&#45;system.ruby.network.ext_links01.int_node</title>
<path fill="none" stroke="black" d="M190.84,-319.06C183.79,-311.68 175.67,-303.17 168.63,-295.8"/>
</g>
<!-- system.ruby.cp_cntrl1 -->
<g id="node6" class="node">
<title>system.ruby.cp_cntrl1</title>
<path fill="#e5bcd0" stroke="#000000" d="M61.93,-322.81C61.93,-322.81 138.93,-322.81 138.93,-322.81 144.93,-322.81 150.93,-328.81 150.93,-334.81 150.93,-334.81 150.93,-346.81 150.93,-346.81 150.93,-352.81 144.93,-358.81 138.93,-358.81 138.93,-358.81 61.93,-358.81 61.93,-358.81 55.93,-358.81 49.93,-352.81 49.93,-346.81 49.93,-346.81 49.93,-334.81 49.93,-334.81 49.93,-328.81 55.93,-322.81 61.93,-322.81"/>
<text text-anchor="middle" x="100.43" y="-337.11" font-family="Arial" font-size="14.00" fill="#000000">ruby.cp_cntrl1</text>
</g>
<!-- system.ruby.cp_cntrl1&#45;&#45;system.ruby.network.ext_links01.int_node -->
<g id="edge5" class="edge">
<title>system.ruby.cp_cntrl1&#45;&#45;system.ruby.network.ext_links01.int_node</title>
<path fill="none" stroke="black" d="M115.17,-322.57C121.87,-314.27 129.79,-304.48 136.5,-296.16"/>
</g>
<!-- system.ruby.tcp_cntrl0 -->
<g id="node7" class="node">
<title>system.ruby.tcp_cntrl0</title>
<path fill="#e5bcd0" stroke="#000000" d="M79.39,-18.18C79.39,-18.18 159.39,-18.18 159.39,-18.18 165.39,-18.18 171.39,-24.18 171.39,-30.18 171.39,-30.18 171.39,-42.18 171.39,-42.18 171.39,-48.18 165.39,-54.18 159.39,-54.18 159.39,-54.18 79.39,-54.18 79.39,-54.18 73.39,-54.18 67.39,-48.18 67.39,-42.18 67.39,-42.18 67.39,-30.18 67.39,-30.18 67.39,-24.18 73.39,-18.18 79.39,-18.18"/>
<text text-anchor="middle" x="119.39" y="-32.48" font-family="Arial" font-size="14.00" fill="#000000">ruby.tcp_cntrl0</text>
</g>
<!-- system.ruby.tcp_cntrl0&#45;&#45;system.ruby.network.ext_links03.int_node -->
<g id="edge6" class="edge">
<title>system.ruby.tcp_cntrl0&#45;&#45;system.ruby.network.ext_links03.int_node</title>
<path fill="none" stroke="black" d="M134.37,-54.23C142.1,-63.56 151.51,-74.91 159.24,-84.23"/>
</g>
<!-- system.ruby.tcp_cntrl1 -->
<g id="node8" class="node">
<title>system.ruby.tcp_cntrl1</title>
<path fill="#e5bcd0" stroke="#000000" d="M207.61,-39.7C207.61,-39.7 287.61,-39.7 287.61,-39.7 293.61,-39.7 299.61,-45.7 299.61,-51.7 299.61,-51.7 299.61,-63.7 299.61,-63.7 299.61,-69.7 293.61,-75.7 287.61,-75.7 287.61,-75.7 207.61,-75.7 207.61,-75.7 201.61,-75.7 195.61,-69.7 195.61,-63.7 195.61,-63.7 195.61,-51.7 195.61,-51.7 195.61,-45.7 201.61,-39.7 207.61,-39.7"/>
<text text-anchor="middle" x="247.61" y="-54" font-family="Arial" font-size="14.00" fill="#000000">ruby.tcp_cntrl1</text>
</g>
<!-- system.ruby.tcp_cntrl1&#45;&#45;system.ruby.network.ext_links03.int_node -->
<g id="edge7" class="edge">
<title>system.ruby.tcp_cntrl1&#45;&#45;system.ruby.network.ext_links03.int_node</title>
<path fill="none" stroke="black" d="M217.75,-75.83C212.35,-79.1 206.75,-82.51 201.43,-85.73"/>
</g>
<!-- system.ruby.tcp_cntrl2 -->
<g id="node9" class="node">
<title>system.ruby.tcp_cntrl2</title>
<path fill="#e5bcd0" stroke="#000000" d="M50.8,-55.85C50.8,-55.85 130.8,-55.85 130.8,-55.85 136.8,-55.85 142.8,-61.85 142.8,-67.85 142.8,-67.85 142.8,-79.85 142.8,-79.85 142.8,-85.85 136.8,-91.85 130.8,-91.85 130.8,-91.85 50.8,-91.85 50.8,-91.85 44.8,-91.85 38.8,-85.85 38.8,-79.85 38.8,-79.85 38.8,-67.85 38.8,-67.85 38.8,-61.85 44.8,-55.85 50.8,-55.85"/>
<text text-anchor="middle" x="90.8" y="-70.15" font-family="Arial" font-size="14.00" fill="#000000">ruby.tcp_cntrl2</text>
</g>
<!-- system.ruby.tcp_cntrl2&#45;&#45;system.ruby.network.ext_links03.int_node -->
<g id="edge8" class="edge">
<title>system.ruby.tcp_cntrl2&#45;&#45;system.ruby.network.ext_links03.int_node</title>
<path fill="none" stroke="black" d="M143.14,-91.68C144.45,-92.13 145.75,-92.57 147.02,-93"/>
</g>
<!-- system.ruby.tcp_cntrl3 -->
<g id="node10" class="node">
<title>system.ruby.tcp_cntrl3</title>
<path fill="#e5bcd0" stroke="#000000" d="M123.68,-0.5C123.68,-0.5 203.68,-0.5 203.68,-0.5 209.68,-0.5 215.68,-6.5 215.68,-12.5 215.68,-12.5 215.68,-24.5 215.68,-24.5 215.68,-30.5 209.68,-36.5 203.68,-36.5 203.68,-36.5 123.68,-36.5 123.68,-36.5 117.68,-36.5 111.68,-30.5 111.68,-24.5 111.68,-24.5 111.68,-12.5 111.68,-12.5 111.68,-6.5 117.68,-0.5 123.68,-0.5"/>
<text text-anchor="middle" x="163.68" y="-14.8" font-family="Arial" font-size="14.00" fill="#000000">ruby.tcp_cntrl3</text>
</g>
<!-- system.ruby.tcp_cntrl3&#45;&#45;system.ruby.network.ext_links03.int_node -->
<g id="edge9" class="edge">
<title>system.ruby.tcp_cntrl3&#45;&#45;system.ruby.network.ext_links03.int_node</title>
<path fill="none" stroke="black" d="M165.97,-36.68C167.73,-50.73 170.16,-70.08 171.92,-84.12"/>
</g>
<!-- system.ruby.sqc_cntrl0 -->
<g id="node11" class="node">
<title>system.ruby.sqc_cntrl0</title>
<path fill="#e5bcd0" stroke="#000000" d="M169.73,-8.66C169.73,-8.66 252.73,-8.66 252.73,-8.66 258.73,-8.66 264.73,-14.66 264.73,-20.66 264.73,-20.66 264.73,-32.66 264.73,-32.66 264.73,-38.66 258.73,-44.66 252.73,-44.66 252.73,-44.66 169.73,-44.66 169.73,-44.66 163.73,-44.66 157.73,-38.66 157.73,-32.66 157.73,-32.66 157.73,-20.66 157.73,-20.66 157.73,-14.66 163.73,-8.66 169.73,-8.66"/>
<text text-anchor="middle" x="211.23" y="-22.96" font-family="Arial" font-size="14.00" fill="#000000">ruby.sqc_cntrl0</text>
</g>
<!-- system.ruby.sqc_cntrl0&#45;&#45;system.ruby.network.ext_links03.int_node -->
<g id="edge10" class="edge">
<title>system.ruby.sqc_cntrl0&#45;&#45;system.ruby.network.ext_links03.int_node</title>
<path fill="none" stroke="black" d="M202.26,-44.97C196.44,-56.85 188.89,-72.28 183.08,-84.13"/>
</g>
<!-- system.ruby.scalar_cntrl0 -->
<g id="node12" class="node">
<title>system.ruby.scalar_cntrl0</title>
<path fill="#e5bcd0" stroke="#000000" d="M51.91,-101.52C51.91,-101.52 149.91,-101.52 149.91,-101.52 155.91,-101.52 161.91,-107.52 161.91,-113.52 161.91,-113.52 161.91,-125.52 161.91,-125.52 161.91,-131.52 155.91,-137.52 149.91,-137.52 149.91,-137.52 51.91,-137.52 51.91,-137.52 45.91,-137.52 39.91,-131.52 39.91,-125.52 39.91,-125.52 39.91,-113.52 39.91,-113.52 39.91,-107.52 45.91,-101.52 51.91,-101.52"/>
<text text-anchor="middle" x="100.91" y="-115.82" font-family="Arial" font-size="14.00" fill="#000000">ruby.scalar_cntrl0</text>
</g>
<!-- system.ruby.scalar_cntrl0&#45;&#45;system.ruby.network.ext_links03.int_node -->
<g id="edge11" class="edge">
<title>system.ruby.scalar_cntrl0&#45;&#45;system.ruby.network.ext_links03.int_node</title>
<path fill="none" stroke="black" d="M162.1,-105.11C162.21,-105.09 162.32,-105.06 162.44,-105.03"/>
</g>
<!-- system.ruby.tcc_cntrl0 -->
<g id="node13" class="node">
<title>system.ruby.tcc_cntrl0</title>
<path fill="#e5bcd0" stroke="#000000" d="M222.3,-84.35C222.3,-84.35 302.3,-84.35 302.3,-84.35 308.3,-84.35 314.3,-90.35 314.3,-96.35 314.3,-96.35 314.3,-108.35 314.3,-108.35 314.3,-114.35 308.3,-120.35 302.3,-120.35 302.3,-120.35 222.3,-120.35 222.3,-120.35 216.3,-120.35 210.3,-114.35 210.3,-108.35 210.3,-108.35 210.3,-96.35 210.3,-96.35 210.3,-90.35 216.3,-84.35 222.3,-84.35"/>
<text text-anchor="middle" x="262.3" y="-98.65" font-family="Arial" font-size="14.00" fill="#000000">ruby.tcc_cntrl0</text>
</g>
<!-- system.ruby.tcc_cntrl0&#45;&#45;system.ruby.network.ext_links03.int_node -->
<g id="edge12" class="edge">
<title>system.ruby.tcc_cntrl0&#45;&#45;system.ruby.network.ext_links03.int_node</title>
<path fill="none" stroke="black" d="M210.29,-102.3C207.31,-102.3 204.38,-102.29 201.56,-102.29"/>
</g>
<!-- system.dma_cntrl0 -->
<g id="node14" class="node">
<title>system.dma_cntrl0</title>
<path fill="#e5bcd0" stroke="#000000" d="M219.38,-129.73C219.38,-129.73 279.38,-129.73 279.38,-129.73 285.38,-129.73 291.38,-135.73 291.38,-141.73 291.38,-141.73 291.38,-153.73 291.38,-153.73 291.38,-159.73 285.38,-165.73 279.38,-165.73 279.38,-165.73 219.38,-165.73 219.38,-165.73 213.38,-165.73 207.38,-159.73 207.38,-153.73 207.38,-153.73 207.38,-141.73 207.38,-141.73 207.38,-135.73 213.38,-129.73 219.38,-129.73"/>
<text text-anchor="middle" x="249.38" y="-144.03" font-family="Arial" font-size="14.00" fill="#000000">dma_cntrl0</text>
</g>
<!-- system.dma_cntrl0&#45;&#45;system.ruby.network.ext_links03.int_node -->
<g id="edge13" class="edge">
<title>system.dma_cntrl0&#45;&#45;system.ruby.network.ext_links03.int_node</title>
<path fill="none" stroke="black" d="M219.23,-129.5C213.35,-125.94 207.21,-122.23 201.43,-118.74"/>
</g>
<!-- system.dma_cntrl1 -->
<g id="node15" class="node">
<title>system.dma_cntrl1</title>
<path fill="#e5bcd0" stroke="#000000" d="M172.93,-146.07C172.93,-146.07 232.93,-146.07 232.93,-146.07 238.93,-146.07 244.93,-152.07 244.93,-158.07 244.93,-158.07 244.93,-170.07 244.93,-170.07 244.93,-176.07 238.93,-182.07 232.93,-182.07 232.93,-182.07 172.93,-182.07 172.93,-182.07 166.93,-182.07 160.93,-176.07 160.93,-170.07 160.93,-170.07 160.93,-158.07 160.93,-158.07 160.93,-152.07 166.93,-146.07 172.93,-146.07"/>
<text text-anchor="middle" x="202.93" y="-160.37" font-family="Arial" font-size="14.00" fill="#000000">dma_cntrl1</text>
</g>
<!-- system.dma_cntrl1&#45;&#45;system.ruby.network.ext_links03.int_node -->
<g id="edge14" class="edge">
<title>system.dma_cntrl1&#45;&#45;system.ruby.network.ext_links03.int_node</title>
<path fill="none" stroke="black" d="M194.47,-145.86C190.76,-137.88 186.42,-128.54 182.7,-120.56"/>
</g>
</g>
</svg>
